%
M48
M72
T01C0.03150
T02C0.03200
T03C0.04000
T04C0.04400
%
T01
X167154Y45107
X182902Y45107
T02
X70737Y55580
X90737Y57706
X110737Y57706
X120737Y47706
X110737Y42706
X120737Y37706
X120737Y27706
X120737Y17706
X150737Y17706
X160343Y17824
X150737Y27706
X160737Y28769
X150737Y37706
X150737Y47706
X160737Y61643
X190737Y61643
X199359Y56328
X190737Y28769
X199359Y26328
X190343Y17824
X80737Y42706
X45737Y43706
X45737Y51706
X50737Y26706
X70737Y25580
X50737Y18706
T03
X15737Y66643
X15737Y56643
X15737Y46643
X11800Y18769
X21800Y18769
X95737Y17706
X95737Y27706
X90737Y72706
X100737Y72706
X110737Y72706
X120737Y72706
X130737Y72706
X140737Y72706
X160737Y72706
X170737Y72706
X180737Y72706
X216800Y67706
X216800Y57706
X216800Y47706
X220737Y18769
X210737Y18769
T04
X30737Y67706
X70737Y67706
M30
