G75*
%MOIN*%
%OFA0B0*%
%FSLAX25Y25*%
%IPPOS*%
%LPD*%
%AMOC8*
5,1,8,0,0,1.08239X$1,22.5*
%
%ADD10C,0.01600*%
%ADD11C,0.06600*%
%ADD12C,0.05200*%
%ADD13C,0.06000*%
%ADD14OC8,0.05200*%
%ADD15C,0.05200*%
%ADD16C,0.01000*%
%ADD17C,0.02400*%
D10*
X0001800Y0001800D02*
X0001800Y0092351D01*
X0234083Y0092351D01*
X0234083Y0001800D01*
X0001800Y0001800D01*
D11*
X0030737Y0067706D03*
X0070737Y0067706D03*
X0167154Y0045107D03*
X0182902Y0045107D03*
D12*
X0153337Y0047706D02*
X0148137Y0047706D01*
X0148137Y0037706D02*
X0153337Y0037706D01*
X0153337Y0027706D02*
X0148137Y0027706D01*
X0123337Y0027706D02*
X0118137Y0027706D01*
X0118137Y0037706D02*
X0123337Y0037706D01*
X0123337Y0047706D02*
X0118137Y0047706D01*
X0118137Y0017706D02*
X0123337Y0017706D01*
X0148137Y0017706D02*
X0153337Y0017706D01*
D13*
X0098737Y0017706D02*
X0092737Y0017706D01*
X0092737Y0027706D02*
X0098737Y0027706D01*
X0021800Y0021769D02*
X0021800Y0015769D01*
X0011800Y0015769D02*
X0011800Y0021769D01*
X0012737Y0046643D02*
X0018737Y0046643D01*
X0018737Y0056643D02*
X0012737Y0056643D01*
X0012737Y0066643D02*
X0018737Y0066643D01*
X0090737Y0069706D02*
X0090737Y0075706D01*
X0100737Y0075706D02*
X0100737Y0069706D01*
X0110737Y0069706D02*
X0110737Y0075706D01*
X0120737Y0075706D02*
X0120737Y0069706D01*
X0130737Y0069706D02*
X0130737Y0075706D01*
X0140737Y0075706D02*
X0140737Y0069706D01*
X0160737Y0069706D02*
X0160737Y0075706D01*
X0170737Y0075706D02*
X0170737Y0069706D01*
X0180737Y0069706D02*
X0180737Y0075706D01*
X0213800Y0067706D02*
X0219800Y0067706D01*
X0219800Y0057706D02*
X0213800Y0057706D01*
X0213800Y0047706D02*
X0219800Y0047706D01*
X0220737Y0021769D02*
X0220737Y0015769D01*
X0210737Y0015769D02*
X0210737Y0021769D01*
D14*
X0199359Y0026328D03*
X0190737Y0028769D03*
X0190343Y0017824D03*
X0160737Y0028769D03*
X0160343Y0017824D03*
X0110737Y0042706D03*
X0080737Y0042706D03*
X0070737Y0055580D03*
X0090737Y0057706D03*
X0110737Y0057706D03*
X0160737Y0061643D03*
X0190737Y0061643D03*
X0199359Y0056328D03*
X0070737Y0025580D03*
X0050737Y0026706D03*
X0045737Y0043706D03*
D15*
X0045737Y0051706D03*
X0050737Y0018706D03*
D16*
X0012037Y0019606D02*
X0011800Y0018769D01*
X0015737Y0046643D02*
X0016537Y0046606D01*
X0101137Y0058306D02*
X0101137Y0072706D01*
X0100737Y0072706D01*
X0101137Y0058306D02*
X0114637Y0044806D01*
X0114637Y0043906D01*
X0120037Y0038506D01*
X0120737Y0037706D01*
X0120937Y0017806D02*
X0140737Y0037606D01*
X0140737Y0072706D01*
X0156037Y0062806D02*
X0160537Y0067306D01*
X0160537Y0072706D01*
X0160737Y0072706D01*
X0156037Y0062806D02*
X0156037Y0047506D01*
X0151537Y0047506D01*
X0150737Y0047706D01*
X0156037Y0047506D02*
X0165037Y0047506D01*
X0166837Y0045706D01*
X0167154Y0045107D01*
X0176737Y0045706D02*
X0161437Y0061006D01*
X0160737Y0061643D01*
X0190737Y0061643D02*
X0191137Y0061006D01*
X0201037Y0061006D01*
X0211837Y0050206D01*
X0191137Y0029506D01*
X0190737Y0028769D01*
X0197437Y0024106D02*
X0199237Y0025906D01*
X0199359Y0026328D01*
X0197437Y0024106D02*
X0160537Y0024106D01*
X0154237Y0017806D01*
X0151537Y0017806D01*
X0150737Y0017706D01*
X0120937Y0017806D02*
X0120737Y0017706D01*
X0182137Y0045706D02*
X0182902Y0045107D01*
X0182137Y0045706D02*
X0176737Y0045706D01*
X0211837Y0050206D02*
X0213637Y0048406D01*
X0216337Y0048406D01*
X0216800Y0047706D01*
D17*
X0050737Y0018706D02*
X0031837Y0018706D01*
X0023737Y0026806D01*
X0019237Y0026806D01*
X0016537Y0029506D01*
X0016537Y0046606D01*
X0019237Y0026806D02*
X0012037Y0019606D01*
M02*
