G75*
%MOIN*%
%OFA0B0*%
%FSLAX25Y25*%
%IPPOS*%
%LPD*%
%AMOC8*
5,1,8,0,0,1.08239X$1,22.5*
%
%ADD10C,0.01600*%
%ADD11C,0.00400*%
D10*
X0001800Y0001800D02*
X0001800Y0092351D01*
X0234083Y0092351D01*
X0234083Y0001800D01*
X0001800Y0001800D01*
D11*
X0014917Y0080740D02*
X0016452Y0080740D01*
X0017219Y0081507D01*
X0017219Y0083042D01*
X0016452Y0083809D01*
X0014917Y0083809D01*
X0014150Y0083042D01*
X0014150Y0082275D01*
X0017219Y0082275D01*
X0018754Y0083809D02*
X0020288Y0080740D01*
X0021823Y0083809D01*
X0023358Y0083042D02*
X0023358Y0082275D01*
X0026427Y0082275D01*
X0026427Y0083042D02*
X0026427Y0081507D01*
X0025660Y0080740D01*
X0024125Y0080740D01*
X0027962Y0080740D02*
X0028729Y0081507D01*
X0028729Y0084577D01*
X0029496Y0083809D02*
X0027962Y0083809D01*
X0026427Y0083042D02*
X0025660Y0083809D01*
X0024125Y0083809D01*
X0023358Y0083042D01*
X0031031Y0083809D02*
X0033333Y0083809D01*
X0034100Y0083042D01*
X0033333Y0082275D01*
X0031798Y0082275D01*
X0031031Y0081507D01*
X0031798Y0080740D01*
X0034100Y0080740D01*
X0040239Y0081507D02*
X0041006Y0080740D01*
X0042541Y0080740D01*
X0043308Y0081507D01*
X0043308Y0082275D01*
X0042541Y0083042D01*
X0041006Y0083042D01*
X0040239Y0082275D01*
X0040239Y0081507D01*
X0041006Y0083042D02*
X0040239Y0083809D01*
X0040239Y0084577D01*
X0041006Y0085344D01*
X0042541Y0085344D01*
X0043308Y0084577D01*
X0043308Y0083809D01*
X0042541Y0083042D01*
X0046377Y0085344D02*
X0046377Y0080740D01*
X0044843Y0080740D02*
X0047912Y0080740D01*
X0049447Y0081507D02*
X0050214Y0080740D01*
X0051748Y0080740D01*
X0052516Y0081507D01*
X0049447Y0084577D01*
X0049447Y0081507D01*
X0052516Y0081507D02*
X0052516Y0084577D01*
X0051748Y0085344D01*
X0050214Y0085344D01*
X0049447Y0084577D01*
X0047912Y0083809D02*
X0046377Y0085344D01*
X0054050Y0084577D02*
X0054818Y0085344D01*
X0056352Y0085344D01*
X0057120Y0084577D01*
X0054050Y0084577D02*
X0054050Y0083809D01*
X0057120Y0080740D01*
X0054050Y0080740D01*
X0063258Y0082275D02*
X0063258Y0083809D01*
X0064793Y0085344D01*
X0066328Y0083809D02*
X0068630Y0083809D01*
X0069397Y0083042D01*
X0069397Y0081507D01*
X0068630Y0080740D01*
X0066328Y0080740D01*
X0064793Y0080740D02*
X0063258Y0082275D01*
X0070932Y0080740D02*
X0072466Y0082275D01*
X0072466Y0083809D01*
X0070932Y0085344D01*
M02*
